<?xml version="1.0" encoding="utf-8"?>
<!-- Generator: Adobe Illustrator 24.1.3, SVG Export Plug-In . SVG Version: 6.00 Build 0)  -->
<svg version="1.1" baseProfile="tiny" id="Calque_1"
	 xmlns="http://www.w3.org/2000/svg" xmlns:xlink="http://www.w3.org/1999/xlink" x="0px" y="0px" viewBox="0 0 800 800"
	 overflow="visible" xml:space="preserve">
<path fill="#FF0000" d="M320,110.7c-71.1,0-128.7,57.6-128.7,128.7c0,71.1,57.6,128.7,128.7,128.7s128.7-57.6,128.7-128.7
	c0-0.1,0-0.2,0-0.3c0-70.9-57.5-128.3-128.3-128.3C320.2,110.7,320.1,110.7,320,110.7 M545,366.7c-4.1,0.1-7.5,3-8.3,7l-6,42.3
	c-9.6,4.1-18.8,9.1-27.3,15l-40-16c-3.9-0.7-7.8,1-10,4.3L420,474.7c-2,3.5-1.2,7.9,2,10.3l33.3,26.3c-1.4,11.1-1.4,22.3,0,33.3
	L422,571c-3.1,2.3-4,6.6-2,10l33.3,55.7c2,4.3,6.3,4.3,10,4.3l40-16.3c8.5,6.2,17.6,11.4,27.3,15.3l6,42.3c0.7,4,4.3,6.9,8.3,6.7
	h64.3c3.8-0.1,7-2.9,7.7-6.7l6-42.3c9.5-4.3,18.5-9.4,27-15.3l39.7,16.3c4,0,8.3,0,10.7-4.3l33.3-55.7c2-3.4,1.1-7.7-2-10
	l-33.3-26.3c0.3-5.4,0.3-10.9,0-16.3c0.5-5.3,0.5-10.7,0-16l33.3-26.3c3-2.5,3.9-6.9,2-10.3l-33.3-55.3c-2-4.3-6.3-4.3-10.3-4.3
	l-40,17.3c-8.5-6-17.7-11.1-27.3-15l-6-42.3c-0.3-3.8-3.5-6.8-7.3-7h-60.7 M323.7,433.3c-142,0-257,56.7-257,127.7v64h311
	c-28.4-60-28.4-129.6,0-189.7C359.7,433.6,341.7,432.9,323.7,433.3 M577,481c26.6-2.2,50,17.6,52.2,44.2c2.2,26.6-17.6,50-44.2,52.2
	c-2.7,0.2-5.4,0.2-8,0c-26.6-2.2-46.4-25.6-44.2-52.2C534.8,501.6,553.5,483,577,481L577,481z"/>
<rect x="730" y="664" fill="none" width="33" height="63"/>
</svg>
